<svg width="800" height="1400" viewBox="0 0 800 1400" xmlns="http://www.w3.org/2000/svg">
  <path
    d="M100 80 
       C250 70, 420 60, 480 140
       C540 220, 520 310, 390 350
       C260 390, 160 390, 150 470
       C140 560, 260 580, 390 600
       C520 620, 650 640, 650 720
       C650 800, 500 840, 380 860
       C260 880, 140 900, 150 980
       C160 1060, 300 1070, 420 1090
       C540 1110, 660 1140, 680 1200
       C700 1260, 620 1300, 520 1310
       C420 1320, 300 1310, 200 1320
       C100 1330, 80 1380, 100 1400"
    fill="none"
    stroke="black"
    stroke-width="80"
    stroke-linecap="round"
    stroke-linejoin="round"
  />
</svg>